<?xml version="1.0" standalone="no"?>
<!DOCTYPE svg PUBLIC "-//W3C//DTD SVG 20010904//EN"
 "http://www.w3.org/TR/2001/REC-SVG-20010904/DTD/svg10.dtd">
<svg version="1.0" xmlns="http://www.w3.org/2000/svg"
 width="486.000000pt" height="464.000000pt" viewBox="0 0 486.000000 464.000000"
 preserveAspectRatio="xMidYMid meet">

<g transform="translate(0.000000,464.000000) scale(0.100000,-0.100000)"
fill="#000000" stroke="none">
<path d="M2294 4570 c-680 -61 -1275 -351 -1631 -793 -205 -255 -369 -594
-471 -977 -54 -204 -74 -660 -39 -890 55 -353 164 -646 324 -870 140 -195 461
-489 732 -672 263 -176 535 -270 912 -314 502 -58 1143 95 1564 373 438 290
744 676 895 1130 78 237 106 452 97 763 -15 521 -121 894 -350 1237 -101 151
-174 238 -309 369 -183 177 -396 324 -653 449 -292 143 -491 193 -795 200
-102 2 -226 0 -276 -5z m-79 -78 c-10 -9 -88 -29 -140 -37 -16 -2 -57 -10 -90
-17 l-60 -13 -3 -43 -3 -43 103 8 c153 12 382 6 468 -12 41 -8 86 -17 100 -19
106 -19 313 -113 395 -180 42 -35 72 -43 115 -33 14 3 42 9 63 12 l38 6 -46
51 c-24 27 -42 55 -38 61 3 6 1 7 -5 3 -6 -4 -19 6 -29 21 -10 15 -26 37 -36
48 -11 11 -30 37 -43 58 -14 21 -34 47 -44 57 -25 25 -27 53 -2 46 9 -3 40
-10 67 -17 28 -7 75 -23 105 -36 30 -14 79 -34 108 -45 28 -10 52 -24 52 -29
0 -6 5 -7 10 -4 6 3 10 1 10 -6 0 -7 3 -9 7 -6 3 4 12 2 20 -4 7 -6 13 -8 13
-4 0 4 6 3 13 -3 6 -5 44 -26 82 -47 142 -76 138 -72 132 -122 -2 -24 -6 -46
-8 -48 -2 -2 -85 -4 -184 -6 -167 -3 -237 -9 -419 -40 -72 -12 -153 -14 -221
-6 -63 7 -205 48 -205 59 0 5 -4 7 -9 3 -6 -3 -50 8 -98 24 -78 26 -210 66
-253 75 -8 2 -55 7 -105 11 -90 8 -143 23 -162 47 -6 7 -18 41 -27 75 -9 34
-19 70 -23 79 -4 11 -2 15 4 11 6 -4 13 -3 15 2 3 11 237 60 328 70 8 0 10 -2
5 -7z m-411 -109 c4 -16 14 -52 23 -81 l16 -53 -34 -29 c-19 -16 -36 -29 -39
-30 -7 0 -129 -113 -256 -236 -58 -55 -107 -98 -109 -95 -3 2 -5 -1 -5 -7 0
-10 -35 -51 -128 -151 -24 -25 -51 -58 -60 -73 -9 -16 -21 -28 -27 -28 -5 0
-23 -7 -38 -15 -16 -8 -42 -16 -57 -17 -16 -1 -26 -6 -24 -10 3 -4 -7 -13 -23
-19 -44 -16 -285 -139 -315 -160 -14 -11 -29 -19 -32 -19 -3 0 -22 -11 -42
-25 -20 -14 -41 -22 -48 -18 -6 3 -8 3 -4 -2 4 -4 -13 -21 -39 -38 l-46 -31
-28 35 c-16 19 -29 42 -29 53 0 22 100 206 112 206 5 0 7 4 4 9 -3 5 6 21 21
37 15 16 26 31 25 34 -1 5 11 23 82 114 47 61 207 226 220 226 5 0 6 -30 2
-67 -9 -90 -56 -325 -67 -339 -5 -6 -6 -13 -3 -17 3 -3 0 -15 -6 -27 -7 -12
-8 -20 -3 -17 4 2 44 21 88 41 126 57 128 58 130 91 2 27 48 133 64 145 3 3
13 18 21 34 14 28 167 188 220 231 63 51 183 136 265 187 115 71 133 80 145
73 6 -4 10 -3 9 2 -1 4 1 16 6 26 4 10 3 34 -3 53 -5 19 -7 34 -2 34 4 0 11
-12 14 -27z m-80 -8 c-23 -14 -51 -26 -62 -28 -11 -2 -26 -8 -34 -14 -7 -7
-45 -21 -83 -33 -39 -12 -85 -26 -103 -31 -49 -16 -49 -5 0 16 24 10 57 24 73
31 63 27 223 83 240 83 6 1 -9 -10 -31 -24z m197 -196 c25 -13 48 -18 119 -24
88 -7 182 -30 390 -94 107 -34 229 -68 270 -77 41 -8 76 -17 78 -18 2 -2 -4
-39 -13 -82 -21 -102 -45 -231 -49 -269 -9 -71 -26 -264 -29 -309 l-2 -49
-130 -23 c-71 -12 -173 -31 -225 -42 -161 -35 -284 -63 -300 -67 -8 -3 -80
-23 -160 -45 -80 -23 -149 -45 -153 -49 -17 -17 -308 298 -369 398 -12 20 -25
38 -28 41 -3 3 -20 27 -37 55 -28 43 -30 51 -18 65 8 8 30 33 50 54 20 22 48
54 62 72 14 19 30 31 37 27 6 -3 8 -3 4 1 -3 4 17 31 45 59 29 29 63 66 77 82
14 17 68 68 120 115 98 88 99 89 149 130 17 14 39 33 48 43 20 20 36 21 64 6z
m1769 -71 c0 -5 4 -7 9 -4 10 7 161 -111 161 -125 0 -5 4 -8 8 -6 13 3 152
-124 152 -140 0 -8 4 -12 8 -9 14 8 232 -250 232 -275 0 -5 -24 -9 -54 -9 -52
0 -55 1 -97 51 -24 28 -63 70 -86 92 -23 23 -39 45 -37 49 3 5 2 7 -3 6 -5 -2
-52 40 -104 92 -94 93 -209 198 -235 213 -7 4 -11 17 -8 30 2 12 5 34 6 48 2
26 3 26 25 12 13 -9 23 -20 23 -25z m-89 -114 c19 -18 58 -54 87 -81 28 -28
52 -48 52 -46 0 2 26 -22 58 -53 31 -32 56 -62 54 -67 -1 -4 1 -6 6 -3 11 7
53 -40 44 -49 -4 -4 -2 -5 4 -3 13 3 64 -47 64 -64 0 -6 3 -8 6 -5 8 8 50 -44
46 -56 -1 -5 1 -6 6 -3 12 7 66 -55 82 -94 19 -46 6 -451 -20 -599 -6 -30 -10
-69 -10 -87 0 -40 -5 -42 -150 -58 -19 -3 -83 -12 -141 -20 -59 -9 -124 -18
-145 -21 -22 -2 -94 -12 -161 -21 l-122 -17 -43 28 c-49 32 -144 126 -140 138
1 5 -1 6 -6 3 -4 -2 -30 20 -57 50 -27 31 -75 83 -107 116 -32 33 -58 65 -58
70 0 5 -4 7 -8 4 -5 -3 -14 5 -21 17 -7 12 -25 31 -40 42 -45 32 -109 92 -119
112 -23 45 7 315 75 678 6 36 32 68 49 61 6 -2 15 -1 20 4 23 23 372 59 545
57 116 -2 117 -2 150 -33z m-2358 -531 c23 -37 41 -71 39 -76 -1 -5 1 -6 6 -3
9 5 48 -54 44 -67 -1 -5 2 -6 8 -2 5 3 10 2 10 -3 0 -13 82 -107 201 -229 60
-61 109 -118 109 -126 0 -9 -9 -37 -21 -64 -61 -141 -179 -552 -195 -676 -4
-29 -11 -58 -17 -64 -5 -7 -6 -13 -1 -13 18 -1 -230 -119 -259 -124 -6 -1 -21
-7 -32 -13 -16 -8 -82 -33 -105 -38 -3 -1 -18 -7 -33 -13 -16 -7 -31 -12 -35
-12 -4 0 -43 -14 -86 -30 -120 -47 -113 -48 -178 44 -32 45 -57 87 -58 94 -1
45 161 218 260 276 104 61 228 98 335 100 49 0 114 -3 142 -7 52 -8 53 -7 59
20 7 32 49 169 69 226 l14 38 -45 20 c-25 10 -49 19 -53 19 -4 0 -33 14 -64
31 -68 37 -157 116 -189 167 -12 20 -25 39 -29 42 -3 3 -23 38 -43 79 -48 94
-76 205 -76 297 l0 73 -77 -41 c-43 -23 -95 -50 -116 -61 -21 -11 -39 -29 -42
-41 -2 -11 -14 -68 -26 -126 -11 -58 -23 -108 -26 -113 -2 -4 -7 -20 -9 -35
-7 -37 -65 -233 -75 -253 -4 -9 -10 -27 -13 -40 -3 -13 -12 -46 -20 -74 -8
-27 -29 -99 -47 -160 -17 -60 -35 -112 -38 -115 -11 -8 -13 -87 -3 -107 5 -10
18 -36 29 -58 11 -22 32 -62 47 -89 15 -26 25 -50 23 -52 -2 -2 -10 8 -18 24
-8 15 -16 29 -19 32 -3 3 -11 14 -17 25 -96 157 -146 241 -173 292 -39 75 -41
55 36 367 8 33 19 65 24 71 6 7 8 14 5 17 -3 3 13 67 36 144 32 110 46 144 67
162 37 32 172 113 172 104 0 -4 4 -1 8 6 5 7 24 22 43 32 54 32 273 139 289
142 8 2 17 6 20 9 7 9 72 37 88 38 7 1 32 -29 55 -66z m3080 -15 c28 -38 70
-118 62 -118 -3 0 2 -9 12 -19 28 -30 98 -213 131 -341 28 -108 47 -200 35
-172 -2 6 -10 12 -16 12 -11 0 -28 14 -88 75 -16 16 -29 26 -29 21 0 -4 -17 7
-37 25 -21 18 -36 38 -35 43 2 6 0 8 -3 4 -4 -4 -37 17 -73 47 -36 30 -68 52
-72 50 -3 -2 -7 -41 -8 -87 -1 -46 -5 -95 -8 -109 -4 -20 4 -35 31 -65 91 -97
165 -274 206 -486 18 -95 21 -133 15 -238 -7 -137 -13 -213 -21 -247 -6 -27
-3 -29 63 -38 l52 -7 1 29 c0 30 50 264 68 323 17 56 6 -155 -15 -282 -17
-102 -30 -129 -49 -98 -4 6 -10 8 -14 5 -5 -2 -30 2 -57 9 -27 8 -65 17 -85
20 -19 4 -43 12 -52 19 -16 11 -43 124 -108 447 -10 52 -27 133 -38 180 -11
47 -22 99 -25 115 -6 39 -12 65 -24 108 -6 22 -6 53 -1 83 8 44 25 174 34 264
2 19 4 126 4 238 0 201 1 202 23 212 13 5 40 9 60 9 30 1 41 -5 61 -31z
m-3870 -227 l25 -30 -25 -88 c-14 -48 -28 -90 -32 -93 -3 -3 -6 -9 -6 -15 -1
-30 -60 -243 -67 -239 -4 3 -5 -1 -3 -9 6 -13 -37 -207 -50 -227 -3 -5 -12
-10 -19 -10 -7 0 -23 -9 -36 -20 -13 -11 -26 -20 -30 -20 -11 0 19 231 41 315
34 132 119 376 139 400 4 5 9 12 9 15 14 60 19 62 54 21z m2261 -55 c36 -22
367 -346 353 -346 -3 0 24 -29 61 -65 36 -36 69 -65 73 -65 5 0 12 -6 16 -13
4 -7 25 -26 46 -43 38 -28 38 -30 33 -79 -8 -66 -78 -364 -115 -485 -16 -52
-50 -169 -76 -260 -27 -91 -52 -170 -56 -176 -5 -6 -6 -14 -2 -17 3 -4 -1 -7
-11 -7 -52 0 -555 -121 -706 -169 -52 -17 -104 -31 -114 -31 -10 0 -40 17 -65
37 -25 21 -52 42 -60 48 -41 29 -473 475 -568 585 l-30 35 23 115 c31 160 51
247 69 300 8 25 28 88 44 140 36 114 75 218 101 269 17 35 24 39 107 62 48 13
93 24 98 25 6 1 12 3 15 4 3 1 16 3 29 6 14 2 43 11 65 18 87 30 394 96 596
129 14 2 27 5 29 6 2 0 23 -10 45 -23z m1365 -518 c8 -29 26 -109 37 -173 2
-11 16 -72 30 -135 53 -240 104 -495 104 -519 -1 -39 -37 -114 -51 -105 -8 4
-9 3 -5 -4 18 -30 -89 -145 -393 -422 -45 -41 -93 -86 -106 -99 l-22 -23 -47
44 c-25 25 -46 42 -46 39 0 -3 -15 9 -32 25 -38 34 -122 92 -224 152 -38 23
-80 51 -92 62 -12 11 -25 20 -30 20 -5 0 -28 16 -51 37 -32 27 -41 41 -38 57
8 32 76 259 84 276 3 8 7 22 9 30 2 8 12 44 23 80 23 74 115 446 131 532 11
54 13 58 43 63 35 6 285 41 357 50 25 3 99 14 165 24 66 10 125 19 132 20 6 1
16 -14 22 -31z m-3734 -250 c15 -29 66 -116 113 -193 46 -77 85 -145 85 -152
0 -7 3 -10 7 -8 7 4 66 -87 62 -97 -1 -5 2 -8 7 -8 5 0 29 -30 54 -67 35 -52
49 -84 57 -133 27 -151 53 -253 123 -475 23 -71 42 -132 42 -135 1 -3 6 -16
12 -30 6 -14 19 -45 28 -70 10 -25 22 -49 27 -55 21 -23 5 -54 -64 -121 -40
-39 -79 -74 -85 -78 -12 -7 -80 56 -189 175 -54 59 -126 157 -166 227 -65 114
-46 110 84 -21 103 -104 139 -145 211 -241 89 -118 77 -107 102 -88 37 27 35
46 -9 109 -22 33 -48 73 -56 89 -8 16 -23 38 -32 48 -15 17 -108 198 -128 251
-49 127 -63 232 -57 427 4 155 3 168 -14 184 -11 9 -19 23 -19 31 0 7 -3 13
-7 13 -5 1 -24 23 -43 50 -38 54 -55 62 -57 28 -1 -13 -7 -24 -13 -26 -5 -2
-8 -8 -4 -13 5 -8 -19 -85 -45 -144 -5 -11 -19 -47 -31 -80 -12 -33 -27 -72
-32 -87 -6 -15 -15 -25 -21 -21 -5 3 -7 1 -4 -5 4 -5 3 -21 -1 -33 -8 -20 -11
-16 -22 31 -7 30 -15 64 -16 75 -2 11 -8 40 -13 65 -38 187 -48 545 -15 563 9
5 24 17 34 27 19 19 50 39 61 40 4 0 19 -24 34 -52z m1113 -343 c-2 -3 25 -35
61 -73 36 -37 120 -125 186 -197 66 -71 127 -136 135 -145 8 -8 25 -28 38 -44
12 -16 22 -26 22 -24 0 3 37 -30 83 -73 45 -43 101 -91 125 -106 23 -15 42
-32 42 -37 -1 -20 -47 -86 -54 -78 -4 4 -6 3 -4 -3 4 -14 -64 -165 -74 -165
-5 0 -7 -4 -4 -8 6 -10 -30 -110 -46 -129 -6 -7 -8 -13 -5 -13 3 0 -4 -33 -15
-72 -11 -40 -26 -95 -32 -123 l-11 -50 -80 3 c-120 5 -323 38 -442 73 -108 31
-303 115 -303 130 0 5 -6 6 -13 3 -9 -3 -26 26 -52 93 -22 54 -40 100 -41 103
0 3 -6 18 -13 34 -6 16 -13 39 -14 50 -1 12 -5 23 -8 26 -17 14 -114 355 -134
470 -20 118 -21 115 21 109 4 0 10 4 13 9 3 5 72 32 153 61 81 28 168 60 193
71 26 11 51 18 56 14 5 -3 9 -1 9 4 0 6 15 15 33 21 17 7 32 11 32 11 0 -1 25
13 55 29 46 26 105 43 88 26z m2984 -332 c62 -15 114 -28 115 -28 2 -1 -2 -15
-7 -31 -6 -16 -22 -65 -35 -108 -34 -103 -85 -218 -152 -333 -20 -37 -40 -38
-35 -2 3 24 117 364 143 426 15 38 13 42 -33 49 -33 6 -36 4 -51 -32 -22 -52
-88 -169 -109 -193 -9 -11 -22 -30 -29 -43 -34 -66 -190 -232 -275 -292 -62
-44 -220 -136 -234 -136 -4 0 -23 -30 -42 -67 -19 -38 -51 -98 -71 -135 -21
-37 -37 -70 -37 -73 0 -9 57 -5 127 9 37 8 84 17 103 20 45 7 66 12 115 24 22
5 55 13 74 16 33 6 33 6 -31 -57 -82 -81 -143 -128 -152 -119 -4 4 -6 2 -4 -3
2 -6 0 -11 -5 -12 -4 -2 -20 -14 -35 -28 -33 -31 -158 -115 -171 -115 -5 0
-11 -4 -13 -8 -4 -12 -138 -84 -138 -75 0 5 -4 2 -8 -4 -6 -10 -18 -8 -50 8
-23 12 -42 26 -42 33 0 6 15 36 33 66 18 30 36 63 40 73 4 11 12 15 18 11 8
-4 9 -3 5 5 -4 6 -3 17 2 24 5 7 25 41 45 77 19 36 53 97 74 135 56 98 101
197 116 253 13 51 72 126 90 115 6 -3 7 -1 3 6 -4 6 0 14 10 18 10 3 34 23 54
42 20 20 63 61 96 91 158 147 196 184 241 240 78 97 93 118 93 129 0 23 24 61
36 57 7 -3 64 -17 126 -33z m-1352 -213 c0 -5 20 -21 45 -37 25 -15 45 -31 45
-35 0 -5 5 -8 12 -8 6 0 26 -11 44 -25 18 -14 35 -25 37 -25 6 0 137 -84 153
-98 6 -5 28 -21 50 -35 21 -14 67 -51 102 -84 l63 -58 -22 -64 c-12 -35 -36
-89 -53 -120 -17 -31 -42 -77 -56 -103 -41 -79 -50 -58 -14 31 24 58 20 64
-33 59 -44 -5 -91 -1 -182 17 -72 14 -179 77 -261 153 -85 79 -183 213 -214
294 -18 50 -25 53 -76 30 -14 -6 -73 -21 -131 -32 -58 -12 -111 -25 -116 -28
-7 -5 -8 -26 -1 -67 8 -55 6 -182 -6 -265 -7 -48 -56 -180 -67 -180 -5 0 -9
-7 -9 -17 0 -40 -112 -157 -211 -218 -24 -15 -46 -29 -48 -31 -6 -6 70 -72
103 -90 16 -9 43 -29 60 -45 17 -16 37 -29 44 -29 7 0 60 16 119 35 59 19 115
35 124 35 10 0 20 4 23 8 3 5 31 15 63 22 32 8 60 14 63 15 3 1 30 9 60 19 30
10 64 20 75 22 11 1 46 10 79 19 32 9 70 18 85 20 42 7 55 10 66 17 8 4 81 17
105 19 7 0 65 14 135 33 33 9 69 19 80 22 16 4 17 3 5 -5 -8 -6 -11 -11 -6
-11 5 0 4 -6 -2 -12 -5 -7 -22 -35 -37 -63 -15 -27 -39 -66 -54 -85 -14 -19
-26 -37 -26 -40 -3 -30 -41 -58 -90 -65 -5 -1 -17 -5 -25 -8 -41 -18 -100 -35
-100 -30 0 3 -7 0 -15 -7 -9 -7 -18 -10 -21 -7 -3 3 -20 -1 -37 -8 -33 -13
-179 -50 -331 -83 l-89 -20 -46 25 c-25 14 -93 50 -151 80 -58 30 -112 61
-120 67 -8 7 -26 18 -40 25 -112 55 -257 171 -244 193 4 7 2 8 -4 4 -16 -9
-35 32 -27 58 11 38 25 90 31 116 6 29 70 225 83 255 41 94 69 150 104 206
l40 66 106 32 c58 17 131 39 161 47 30 8 84 24 120 35 36 11 148 37 250 57
165 34 187 37 208 24 12 -8 22 -18 22 -22z m1238 -348 c-7 -10 -14 -19 -15
-21 -3 -4 2 28 6 47 1 2 6 0 11 -3 8 -5 7 -12 -2 -23z m-3228 -335 c202 -96
475 -167 647 -167 109 0 160 -25 209 -102 13 -21 30 -38 38 -38 7 0 19 -7 26
-15 16 -19 160 -116 218 -147 23 -13 97 -52 165 -86 67 -35 128 -69 135 -76
10 -9 7 -21 -15 -55 l-28 -43 -180 5 c-192 5 -278 13 -305 27 -10 5 -20 7 -22
4 -3 -2 -27 0 -54 7 -27 6 -60 13 -74 15 -14 3 -32 7 -40 9 -8 2 -35 9 -60 16
l-45 11 75 23 c95 29 154 51 207 75 24 11 49 20 57 20 8 0 18 5 21 10 4 6 10
8 15 5 5 -3 24 2 41 11 l32 16 -24 19 c-13 11 -48 36 -78 56 l-54 37 -176 1
c-148 1 -191 5 -271 24 -52 13 -101 28 -107 33 -7 6 -13 8 -13 5 0 -6 -67 15
-105 32 -11 5 -37 15 -57 21 -21 6 -38 16 -38 21 0 6 -4 7 -10 4 -5 -3 -10 -1
-10 4 0 6 -3 10 -7 9 -22 -4 -133 65 -188 117 -46 43 -60 44 -84 5 l-18 -31
51 -49 c28 -27 82 -75 121 -107 100 -83 120 -102 114 -107 -3 -3 -18 7 -34 22
-16 15 -33 26 -37 25 -4 -2 -15 7 -25 20 -10 12 -25 23 -33 25 -8 1 -27 16
-42 32 -16 17 -29 29 -31 28 -6 -7 -136 108 -134 119 3 20 127 151 140 149 6
-2 46 -19 87 -39z m2360 -97 c-6 -12 -14 -19 -17 -17 -2 3 1 15 7 27 6 12 14
19 17 17 2 -3 -1 -15 -7 -27z m-121 -389 c24 -18 24 -19 4 -29 -64 -35 -407
-149 -453 -151 -8 0 -58 -9 -110 -20 -52 -11 -117 -20 -143 -19 l-48 0 18 31
c16 27 27 33 83 43 145 27 572 143 588 159 11 10 38 4 61 -14z"/>
<path d="M3260 3993 c-19 -1 -62 -5 -95 -9 -82 -7 -89 -13 -69 -52 33 -67 55
-169 61 -284 6 -127 -2 -176 -44 -259 -13 -26 -23 -50 -23 -54 0 -9 -109 -175
-127 -193 -7 -7 -13 -18 -13 -23 0 -6 40 -48 90 -96 52 -49 87 -90 83 -97 -3
-6 -3 -8 2 -4 11 11 36 -12 28 -25 -3 -5 -1 -7 5 -3 5 3 12 1 14 -6 3 -8 31 7
75 40 38 28 99 65 134 81 81 38 239 65 328 56 73 -7 201 -39 245 -61 16 -8 35
-14 43 -14 7 0 25 -8 39 -17 35 -23 39 -13 54 120 l12 111 -28 24 c-55 47
-398 377 -468 452 -39 41 -91 95 -116 120 -25 25 -72 77 -105 115 -61 71 -76
86 -85 83 -3 -1 -21 -3 -40 -5z"/>
<path d="M2785 3010 c5 -7 -39 -43 -150 -123 -66 -47 -220 -127 -245 -127 -10
0 -22 -5 -25 -11 -4 -6 -13 -8 -21 -5 -8 3 -14 2 -14 -3 0 -12 -137 -44 -151
-35 -7 4 -9 3 -6 -3 4 -6 -16 -13 -51 -16 -58 -6 -344 -1 -394 7 -26 4 -27 2
-54 -107 -15 -62 -31 -118 -37 -124 -5 -7 -7 -13 -4 -13 3 0 -1 -23 -9 -52 -7
-29 -12 -54 -10 -56 2 -2 19 -5 37 -7 59 -8 309 -142 309 -166 0 -5 4 -8 9 -6
21 5 203 -188 256 -273 39 -62 114 -207 117 -228 2 -9 6 -19 9 -22 3 -3 16
-31 28 -63 13 -31 27 -59 31 -62 4 -3 34 4 66 15 155 53 276 90 291 90 16 0
16 7 -2 115 -27 163 -30 265 -10 388 15 98 75 306 95 332 4 6 11 21 15 33 22
74 174 236 204 218 5 -4 8 1 7 9 -1 8 -22 29 -47 46 -24 18 -57 46 -73 63 -50
53 -136 163 -136 173 0 6 -9 13 -20 16 -11 3 -18 2 -15 -3z"/>
</g>
</svg>
